nColumns=28
nRows=73
DataType=double
version=3
OpenSimVersion=4.1
endheader
time	ground_force_1_vx	ground_force_1_vy	ground_force_1_vz	ground_force_1_px	ground_force_1_py	ground_force_1_pz	ground_force_1_mx	ground_force_1_my	ground_force_1_mz	ground_force_2_vx	ground_force_2_vy	ground_force_2_vz	ground_force_2_px	ground_force_2_py	ground_force_2_pz	ground_force_2_mx	ground_force_2_my	ground_force_2_mz	ground_force_3_vx	ground_force_3_vy	ground_force_3_vz	ground_force_3_px	ground_force_3_py	ground_force_3_pz	ground_force_3_mx	ground_force_3_my	ground_force_3_mz
0	8.27377	390.884	-34.0848	-0.218701	0.006	-0.408024	0	0.135447	0	-8.73658	199.082	33.7141	-0.136718	0.006	-0.781262	0	0.75998	0	0	0	0	0	0	0	0	0	0
0.01	8.13455	390.365	-34.0323	-0.218306	0.006	-0.40801	0	0.129582	0	-8.70071	199.695	33.8023	-0.136871	0.006	-0.781266	0	0.760186	0	0	0	0	0	0	0	0	0	0
0.02	7.96663	389.768	-33.9763	-0.217818	0.006	-0.407978	0	0.124276	0	-8.66393	200.433	33.9165	-0.137053	0.006	-0.781285	0	0.760827	0	0	0	0	0	0	0	0	0	0
0.03	7.76812	389.091	-33.9163	-0.217233	0.006	-0.407924	0	0.11957	0	-8.62759	201.3	34.0596	-0.137261	0.006	-0.781321	0	0.761872	0	0	0	0	0	0	0	0	0	0
0.04	7.5375	388.333	-33.8512	-0.216549	0.006	-0.407849	0	0.115268	0	-8.59299	202.298	34.234	-0.137491	0.006	-0.781374	0	0.763194	0	0	0	0	0	0	0	0	0	0
0.05	7.27377	387.493	-33.78	-0.215765	0.006	-0.40775	0	0.11101	0	-8.56144	203.425	34.441	-0.137739	0.006	-0.781445	0	0.764585	0	0	0	0	0	0	0	0	0	0
0.06	6.97615	386.578	-33.7022	-0.214882	0.006	-0.407631	0	0.1063	0	-8.53404	204.676	34.6801	-0.137997	0.006	-0.781534	0	0.765812	0	0	0	0	0	0	0	0	0	0
0.07	6.64379	385.597	-33.6193	-0.213906	0.006	-0.407492	0	0.100563	0	-8.51188	206.039	34.9491	-0.138259	0.006	-0.781637	0	0.766693	0	0	0	0	0	0	0	0	0	0
0.08	6.27602	384.569	-33.5342	-0.212841	0.006	-0.407335	0	0.093232	0	-8.49616	207.497	35.2444	-0.138515	0.006	-0.781753	0	0.76703	0	0	0	0	0	0	0	0	0	0
0.09	5.87261	383.514	-33.4516	-0.211695	0.006	-0.407161	0	0.083815	0	-8.48833	209.026	35.5603	-0.138757	0.006	-0.781879	0	0.76659	0	0	0	0	0	0	0	0	0	0
0.1	5.43363	382.458	-33.3766	-0.210479	0.006	-0.406974	0	0.072006	0	-8.49003	210.598	35.8899	-0.138974	0.006	-0.782012	0	0.765204	0	0	0	0	0	0	0	0	0	0
0.11	4.95959	381.426	-33.3151	-0.209203	0.006	-0.406774	0	0.057678	0	-8.50294	212.178	36.2245	-0.139156	0.006	-0.78215	0	0.762772	0	0	0	0	0	0	0	0	0	0
0.12	4.45147	380.441	-33.2728	-0.207881	0.006	-0.406563	0	0.040743	0	-8.52891	213.729	36.5544	-0.139292	0.006	-0.782291	0	0.759291	0	0	0	0	0	0	0	0	0	0
0.13	3.91029	379.523	-33.2552	-0.206527	0.006	-0.406341	0	0.021072	0	-8.56996	215.213	36.8697	-0.139371	0.006	-0.782432	0	0.754859	0	0	0	0	0	0	0	0	0	0
0.14	3.33678	378.684	-33.2664	-0.205157	0.006	-0.406109	0	-0.00164	0	-8.62814	216.594	37.1622	-0.139385	0.006	-0.782573	0	0.749646	0	0	0	0	0	0	0	0	0	0
0.15	2.73139	377.929	-33.3085	-0.203785	0.006	-0.405868	0	-0.027885	0	-8.70507	217.841	37.425	-0.139328	0.006	-0.782711	0	0.743898	0	0	0	0	0	0	0	0	0	0
0.16	2.09452	377.25	-33.38	-0.202427	0.006	-0.405619	0	-0.058278	0	-8.80148	218.929	37.6539	-0.139194	0.006	-0.782845	0	0.737942	0	0	0	0	0	0	0	0	0	0
0.17	1.42669	376.633	-33.4761	-0.201096	0.006	-0.405366	0	-0.093557	0	-8.91725	219.844	37.8471	-0.138984	0.006	-0.782974	0	0.73209	0	0	0	0	0	0	0	0	0	0
0.18	0.72808	376.053	-33.5879	-0.199805	0.006	-0.405114	0	-0.134404	0	-9.05204	220.577	38.0052	-0.138699	0.006	-0.783097	0	0.726546	0	0	0	0	0	0	0	0	0	0
0.19	-0.00213268	375.479	-33.704	-0.198566	0.006	-0.404868	0	-0.18138	0	-9.20529	221.13	38.1307	-0.138344	0.006	-0.783214	0	0.721422	0	0	0	0	0	0	0	0	0	0
0.2	-0.765899	374.874	-33.8109	-0.197389	0.006	-0.404635	0	-0.234932	0	-9.37625	221.511	38.2277	-0.137928	0.006	-0.783326	0	0.716874	0	0	0	0	0	0	0	0	0	0
0.21	-1.56566	374.198	-33.8946	-0.196285	0.006	-0.40442	0	-0.29529	0	-9.56421	221.734	38.3015	-0.13746	0.006	-0.783434	0	0.713118	0	0	0	0	0	0	0	0	0	0
0.22	-2.40386	373.405	-33.941	-0.195267	0.006	-0.404229	0	-0.362358	0	-9.76855	221.818	38.358	-0.13695	0.006	-0.783539	0	0.710309	0	0	0	0	0	0	0	0	0	0
0.23	-3.28157	372.453	-33.9377	-0.194347	0.006	-0.404067	0	-0.435742	0	-9.98864	221.782	38.4036	-0.136406	0.006	-0.783643	0	0.708381	0	0	0	0	0	0	0	0	0	0
0.24	-4.19693	371.303	-33.8741	-0.193544	0.006	-0.403942	0	-0.51477	0	-10.2238	221.649	38.4447	-0.135835	0.006	-0.783746	0	0.707054	0	0	0	0	0	0	0	0	0	0
0.25	-5.1434	369.917	-33.7427	-0.19288	0.006	-0.403858	0	-0.598495	0	-10.4735	221.443	38.4874	-0.135246	0.006	-0.78385	0	0.70577	0	0	0	0	0	0	0	0	0	0
0.26	-6.10803	368.259	-33.5378	-0.192383	0.006	-0.403824	0	-0.685694	0	-10.7367	221.188	38.5369	-0.134646	0.006	-0.783958	0	0.703729	0	0	0	0	0	0	0	0	0	0
0.27	-7.07019	366.292	-33.2557	-0.192088	0.006	-0.403847	0	-0.77483	0	-11.0118	220.905	38.5971	-0.134042	0.006	-0.784068	0	0.700041	0	0	0	0	0	0	0	0	0	0
0.28	-8.00081	363.978	-32.8953	-0.192039	0.006	-0.403934	0	-0.86402	0	-11.2961	220.61	38.6701	-0.133443	0.006	-0.784184	0	0.693857	0	0	0	0	0	0	0	0	0	0
0.29	-8.86326	361.279	-32.4584	-0.192281	0.006	-0.404095	0	-0.95115	0	-11.5856	220.315	38.7564	-0.132856	0.006	-0.784304	0	0.68431	0	0	0	0	0	0	0	0	0	0
0.3	-9.61656	358.153	-31.9487	-0.192865	0.006	-0.404337	0	-1.03393	0	-11.8741	220.023	38.8544	-0.132285	0.006	-0.784431	0	0.670548	0	0	0	0	0	0	0	0	0	0
0.31	-10.2194	354.564	-31.3706	-0.193841	0.006	-0.404667	0	-1.11012	0	-12.1534	219.73	38.9612	-0.131735	0.006	-0.784564	0	0.651856	0	0	0	0	0	0	0	0	0	0
0.32	-10.6347	350.487	-30.7281	-0.195259	0.006	-0.405092	0	-1.17776	0	-12.4119	219.418	39.0725	-0.131209	0.006	-0.784702	0	0.627734	0	0	0	0	0	0	0	0	0	0
0.33	-10.8341	345.921	-30.0244	-0.19716	0.006	-0.405621	0	-1.2353	0	-12.6351	219.065	39.1822	-0.130709	0.006	-0.784844	0	0.597996	0	0	0	0	0	0	0	0	0	0
0.34	-10.8018	340.891	-29.2633	-0.199579	0.006	-0.406259	0	-1.28162	0	-12.8084	218.639	39.283	-0.130237	0.006	-0.784987	0	0.56286	0	0	0	0	0	0	0	0	0	0
0.35	-10.5369	335.453	-28.4503	-0.20254	0.006	-0.407015	0	-1.31594	0	-12.9197	218.102	39.3669	-0.129792	0.006	-0.785128	0	0.522682	0	0	0	0	0	0	0	0	0	0
0.36	-10.0532	329.699	-27.594	-0.20605	0.006	-0.407891	0	-1.33789	0	-12.9619	217.418	39.4252	-0.129371	0.006	-0.785262	0	0.477859	0	0	0	0	0	0	0	0	0	0
0.37	-9.37781	323.753	-26.7062	-0.210101	0.006	-0.408891	0	-1.34759	0	-12.9323	216.547	39.4501	-0.128972	0.006	-0.785385	0	0.42887	0	0	0	0	0	0	0	0	0	0
0.38	-8.54738	317.767	-25.8021	-0.214664	0.006	-0.41001	0	-1.34573	0	-12.8334	215.455	39.4342	-0.128592	0.006	-0.785496	0	0.376213	0	0	0	0	0	0	0	0	0	0
0.39	-7.60313	311.915	-24.8985	-0.219691	0.006	-0.41124	0	-1.33358	0	-12.6728	214.115	39.3717	-0.128226	0.006	-0.785592	0	0.320401	0	0	0	0	0	0	0	0	0	0
0.4	-6.584	306.394	-24.0137	-0.225116	0.006	-0.412567	0	-1.31322	0	-12.4634	212.506	39.2586	-0.127871	0.006	-0.785673	0	0.262	0	0	0	0	0	0	0	0	0	0
0.41	-5.5208	301.415	-23.1677	-0.230852	0.006	-0.41397	0	-1.28731	0	-12.2213	210.62	39.0929	-0.127521	0.006	-0.785741	0	0.201598	0	0	0	0	0	0	0	0	0	0
0.42	-4.43235	297.205	-22.3839	-0.236799	0.006	-0.415422	0	-1.25891	0	-11.9626	208.453	38.8746	-0.127175	0.006	-0.785795	0	0.139835	0	0	0	0	0	0	0	0	0	0
0.43	-3.32447	293.994	-21.6892	-0.242838	0.006	-0.416888	0	-1.23114	0	-11.698	206.01	38.606	-0.126831	0.006	-0.785838	0	0.077409	0	0	0	0	0	0	0	0	0	0
0.44	-2.19157	291.99	-21.1121	-0.24884	0.006	-0.418327	0	-1.20672	0	-11.4294	203.299	38.291	-0.126488	0.006	-0.785872	0	0.015096	0	0	0	0	0	0	0	0	0	0
0.45	-1.02045	291.349	-20.6773	-0.254672	0.006	-0.419699	0	-1.18769	0	-11.1511	200.334	37.9359	-0.12615	0.006	-0.785899	0	-0.046271	0	0	0	0	0	0	0	0	0	0
0.46	0.205599	292.161	-20.4039	-0.260212	0.006	-0.420967	0	-1.17546	0	-10.855	197.136	37.5483	-0.125822	0.006	-0.785921	0	-0.10593	0	0	0	0	0	0	0	0	0	0
0.47	1.50018	294.435	-20.3017	-0.265354	0.006	-0.422101	0	-1.17077	0	-10.5346	193.735	37.1364	-0.125506	0.006	-0.785941	0	-0.163267	0	0	0	0	0	0	0	0	0	0
0.48	2.86653	298.102	-20.3684	-0.270024	0.006	-0.423082	0	-1.1734	0	-10.1863	190.167	36.7074	-0.125204	0.006	-0.785961	0	-0.217703	0	0	0	0	0	0	0	0	0	0
0.49	4.29491	303.025	-20.5868	-0.274174	0.006	-0.423905	0	-1.1819	0	-9.80831	186.475	36.2652	-0.124914	0.006	-0.785981	0	-0.268522	0	0	0	0	0	0	0	0	0	0
0.5	5.76358	309.017	-20.9285	-0.277788	0.006	-0.424576	0	-1.19388	0	-9.3985	182.696	35.8085	-0.124634	0.006	-0.786001	0	-0.314766	0	0	0	0	0	0	0	0	0	0
0.51	7.2416	315.864	-21.3597	-0.280875	0.006	-0.425107	0	-1.2065	0	-8.95498	178.861	35.3302	-0.124357	0.006	-0.786017	0	-0.355341	0	0	0	0	0	0	0	0	0	0
0.52	8.69018	323.345	-21.8446	-0.283458	0.006	-0.425513	0	-1.2169	0	-8.47912	174.986	34.8188	-0.124075	0.006	-0.786022	0	-0.389416	0	0	0	0	0	0	0	0	0	0
0.53	10.0654	331.251	-22.3469	-0.285571	0.006	-0.42581	0	-1.22254	0	-7.97829	171.078	34.2602	-0.123776	0.006	-0.786005	0	-0.416535	0	0	0	0	0	0	0	0	0	0
0.54	11.3234	339.386	-22.8331	-0.28725	0.006	-0.426013	0	-1.22151	0	-7.46543	167.135	33.6393	-0.123449	0.006	-0.785951	0	-0.436769	0	0	0	0	0	0	0	0	0	0
0.55	12.4255	347.581	-23.2789	-0.288535	0.006	-0.426133	0	-1.21275	0	-6.95634	163.15	32.9422	-0.123083	0.006	-0.785843	0	-0.450537	0	0	0	0	0	0	0	0	0	0
0.56	13.3419	355.687	-23.6732	-0.289463	0.006	-0.426179	0	-1.19617	0	-6.46717	159.121	32.1575	-0.122669	0.006	-0.785663	0	-0.458321	0	0	0	0	0	0	0	0	0	0
0.57	14.0516	363.577	-24.0199	-0.290066	0.006	-0.426156	0	-1.17234	0	-6.01221	155.054	31.2789	-0.122199	0.006	-0.785393	0	-0.460508	0	0	0	0	0	0	0	0	0	0
0.58	14.5421	371.13	-24.3341	-0.290376	0.006	-0.426065	0	-1.14221	0	-5.60407	150.968	30.3074	-0.121673	0.006	-0.785017	0	-0.45743	0	0	0	0	0	0	0	0	0	0
0.59	14.8099	378.226	-24.6352	-0.290423	0.006	-0.425909	0	-1.10682	0	-5.25324	146.896	29.2525	-0.121089	0.006	-0.784528	0	-0.449567	0	0	0	0	0	0	0	0	0	0
0.6	14.8613	384.748	-24.9416	-0.290235	0.006	-0.425692	0	-1.06728	0	-4.96446	142.884	28.132	-0.120454	0.006	-0.783922	0	-0.4375	0	0	0	0	0	0	0	0	0	0
0.61	14.7113	390.605	-25.268	-0.289843	0.006	-0.425417	0	-1.0246	0	-4.73413	138.986	26.9703	-0.119776	0.006	-0.783208	0	-0.421906	0	0	0	0	0	0	0	0	0	0
0.62	14.3808	395.749	-25.6231	-0.289277	0.006	-0.425092	0	-0.979654	0	-4.55082	135.262	25.7972	-0.119068	0.006	-0.782401	0	-0.403651	0	0	0	0	0	0	0	0	0	0
0.63	13.896	400.197	-26.0073	-0.288566	0.006	-0.424724	0	-0.93317	0	-4.3987	131.776	24.6463	-0.11835	0.006	-0.781526	0	-0.38371	0	0	0	0	0	0	0	0	0	0
0.64	13.29	404.025	-26.4121	-0.287744	0.006	-0.424326	0	-0.885859	0	-4.26204	128.598	23.5523	-0.117649	0.006	-0.780613	0	-0.362956	0	0	0	0	0	0	0	0	0	0
0.65	12.6049	407.368	-26.8215	-0.286843	0.006	-0.423911	0	-0.838651	0	-4.12589	125.794	22.548	-0.116992	0.006	-0.779696	0	-0.342039	0	0	0	0	0	0	0	0	0	0
0.66	11.8918	410.393	-27.2168	-0.285903	0.006	-0.423494	0	-0.792759	0	-3.97363	123.416	21.66	-0.116408	0.006	-0.778813	0	-0.321406	0	0	0	0	0	0	0	0	0	0
0.67	11.2057	413.274	-27.5825	-0.284962	0.006	-0.423088	0	-0.749554	0	-3.78701	121.498	20.906	-0.115922	0.006	-0.778002	0	-0.301366	0	0	0	0	0	0	0	0	0	0
0.68	10.5977	416.171	-27.9109	-0.284056	0.006	-0.422706	0	-0.71027	0	-3.55147	120.045	20.2957	-0.11555	0.006	-0.777294	0	-0.282358	0	0	0	0	0	0	0	0	0	0
0.69	10.1064	419.22	-28.2034	-0.283215	0.006	-0.422356	0	-0.675782	0	-3.26156	119.041	19.8317	-0.115298	0.006	-0.776711	0	-0.265095	0	0	0	0	0	0	0	0	0	0
0.7	9.74949	422.523	-28.4663	-0.282461	0.006	-0.422045	0	-0.646504	0	-2.92265	118.44	19.5098	-0.115157	0.006	-0.77626	0	-0.250462	0	0	0	0	0	0	0	0	0	0
0.71	9.52388	426.141	-28.7054	-0.281808	0.006	-0.421775	0	-0.622292	0	-2.54906	118.167	19.3173	-0.115109	0.006	-0.775937	0	-0.239298	0	0	0	0	0	0	0	0	0	0
0.72	9.41649	430.098	-28.9226	-0.281261	0.006	-0.421549	0	-0.60266	0	-2.16167	118.129	19.2339	-0.115131	0.006	-0.775722	0	-0.232208	0	0	0	0	0	0	0	0	0	0
